<svg width="1024" height="258" viewBox="0 0 1024 258" fill="none" xmlns="http://www.w3.org/2000/svg">
<path d="M89 19H164.716V108.345L260.623 19H328.767L234.375 107.84L372.178 239.081H277.785L164.716 132.069V179.518H89V19Z" fill="#151414"/>
<path d="M89 239.082V190.119H208.631L260.623 239.082H89Z" fill="#151414"/>
<path d="M176.831 80.5824L176.831 19L242.908 19L176.831 80.5824Z" fill="#151414"/>
<path d="M404.988 85.6309H425.179V127.022L471.618 85.6309H496.352L451.218 125.003L497.362 172.452H472.628L437.909 136.613L425.179 147.718V172.452H404.988V85.6309Z" fill="#151414"/>
<path d="M559.954 83.6113C596.628 83.6113 615.984 102.376 615.984 129.041C615.984 155.706 596.628 174.471 559.954 174.471C523.28 174.471 503.924 155.707 503.924 129.042C503.924 102.377 523.28 83.6113 559.954 83.6113ZM559.954 97.745C536.496 97.745 524.115 110.672 524.115 129.041C524.115 147.41 536.495 160.337 559.954 160.337C583.412 160.337 595.793 147.41 595.793 129.041C595.793 110.672 583.412 97.745 559.954 97.745Z" fill="#151414"/>
<path d="M680.596 84.6191C720.904 84.6192 742.178 102.375 742.178 129.04C742.177 155.705 720.904 172.955 680.596 172.955H641.729V84.6191H680.596ZM661.919 98.7529V158.821H680.596C706.378 158.821 722.491 147.408 722.491 129.039C722.491 110.67 706.378 98.753 680.596 98.7529H661.919Z" fill="#151414"/>
<path fill-rule="evenodd" clip-rule="evenodd" d="M871.903 83.6113C908.577 83.6113 927.933 102.376 927.933 129.041C927.933 140.072 924.62 149.751 918.14 157.308C917.983 157.491 917.821 157.67 917.661 157.851L935 172.451H911.78L905.568 167.22C896.819 171.865 885.563 174.471 871.903 174.471C835.229 174.471 815.873 155.707 815.873 129.042C815.873 102.377 835.229 83.6113 871.903 83.6113ZM871.903 97.745C848.445 97.745 836.064 110.672 836.064 129.041C836.064 147.41 848.445 160.337 871.903 160.337C880.028 160.337 886.824 158.785 892.237 155.994L873.417 140.146H896.637L903.366 145.813C906.265 141.076 907.742 135.383 907.742 129.041C907.742 110.672 895.361 97.745 871.903 97.745Z" fill="#151414"/>
<rect x="769.436" y="85.6309" width="20.1909" height="86.8211" fill="#151414"/>
</svg>
