<svg width="1024" height="1024" viewBox="0 0 1024 1024" fill="none" xmlns="http://www.w3.org/2000/svg">
<path d="M189 174H361.727V377.818L580.515 174H735.969L520.636 376.667L835 676.06H619.666L361.727 431.939V540.182H189V174Z" fill="#151414"/>
<path d="M189 676.062V564.365H461.909L580.515 676.062H189Z" fill="#151414"/>
<path d="M389.364 314.485L389.364 174L540.104 174L389.364 314.485Z" fill="#151414"/>
<path d="M189 741.461H213.61V791.911L270.212 741.461H300.358L245.347 789.45L301.589 847.282H271.442L229.126 803.6L213.61 817.135V847.282H189V741.461Z" fill="#151414"/>
<path d="M377.878 739C422.578 739 446.169 761.871 446.169 794.372C446.169 826.872 422.578 849.743 377.878 849.743C333.178 849.743 309.586 826.873 309.586 794.373C309.586 761.872 333.178 739 377.878 739ZM377.878 756.227C349.286 756.227 334.196 771.982 334.196 794.372C334.196 816.761 349.286 832.516 377.878 832.516C406.469 832.516 421.56 816.761 421.56 794.372C421.56 771.982 406.469 756.227 377.878 756.227Z" fill="#151414"/>
<path d="M524.923 740.227C574.052 740.227 599.982 761.867 599.982 794.367C599.982 826.868 574.052 847.894 524.923 847.894H477.549V740.227H524.923ZM502.156 757.455V830.669H524.921C556.346 830.669 575.985 816.758 575.985 794.369C575.985 771.98 556.346 757.455 524.921 757.455H502.156Z" fill="#151414"/>
<path fill-rule="evenodd" clip-rule="evenodd" d="M758.094 739C802.794 739 826.386 761.871 826.386 794.372C826.386 807.816 822.349 819.613 814.45 828.825C814.259 829.048 814.062 829.266 813.866 829.486L834.999 847.282H806.698L799.127 840.906C788.463 846.568 774.743 849.743 758.094 849.743C713.395 849.743 689.803 826.873 689.803 794.373C689.803 761.872 713.394 739 758.094 739ZM758.094 756.227C729.503 756.227 714.413 771.982 714.412 794.372C714.412 816.761 729.502 832.516 758.094 832.516C767.998 832.516 776.281 830.625 782.878 827.223L759.94 807.907H788.241L796.444 814.814C799.976 809.041 801.776 802.102 801.776 794.372C801.776 771.982 786.686 756.227 758.094 756.227Z" fill="#151414"/>
<rect x="633.203" y="741.461" width="24.6096" height="105.821" fill="#151414"/>
</svg>
